<svg width="41" height="32" viewBox="0 0 41 32" fill="none" xmlns="http://www.w3.org/2000/svg">
<path d="M16.7473 3.91821L9.66699 0L10.6468 7.843L20.9982 16L16.7473 3.91821Z" fill="#FF3E54"/>
<path d="M17.3242 28.3915L9.67773 32L10.6481 23.9071L20.9995 16L17.3242 28.3915Z" fill="#FF3E54"/>
<path d="M8.41026 19L0 16L8.41026 13L21.0096 15.9999L8.41026 19Z" fill="#FF3E54"/>
<path d="M24.7871 3.91821L32.3358 0L31.4641 7.843L20.9951 16L24.7871 3.91821Z" fill="#FF3E54"/>
<path d="M23.6359 27.8317L32.3358 32L31.4641 23.9071L20.9951 16L23.6359 27.8317Z" fill="#FF3E54"/>
<path d="M32.5901 18.9999L41 15.9998L32.5901 12.9999L20.9988 15.9989L32.5901 18.9999Z" fill="#FF3E54"/>
</svg>
