<svg width="34" height="34" viewBox="0 0 34 34" fill="none" xmlns="http://www.w3.org/2000/svg">
<path fill-rule="evenodd" clip-rule="evenodd" d="M11.6874 8.52141V7.0835C11.6874 5.67453 12.2471 4.32328 13.2434 3.32699C14.2396 2.3307 15.5909 1.771 16.9999 1.771C18.4088 1.771 19.7601 2.3307 20.7564 3.32699C21.7527 4.32328 22.3124 5.67453 22.3124 7.0835V8.52141C24.1356 8.57666 25.2519 8.77216 26.1034 9.47908C27.2834 10.4594 27.5951 12.1169 28.217 15.4333L29.2795 21.1C30.1536 25.7637 30.5899 28.0955 29.3164 29.6312C28.0414 31.1668 25.6684 31.1668 20.924 31.1668H13.0757C8.32986 31.1668 5.95836 31.1668 4.68336 29.6312C3.40836 28.0955 3.84753 25.7637 4.72019 21.1L5.78269 15.4333C6.40603 12.1183 6.71628 10.4594 7.89636 9.47908C8.74778 8.77216 9.86411 8.57666 11.6874 8.52141ZM13.8124 7.0835C13.8124 6.23812 14.1482 5.42737 14.746 4.82959C15.3437 4.23182 16.1545 3.896 16.9999 3.896C17.8452 3.896 18.656 4.23182 19.2538 4.82959C19.8515 5.42737 20.1874 6.23812 20.1874 7.0835V8.50016H13.8124V7.0835Z" fill="#0174C4"/>
<path d="M22.306 16.13V26H19.562V20.554L17.7 26H15.404L13.528 20.512V26H10.784V16.13H14.102L16.58 22.542L19.002 16.13H22.306Z" fill="white"/>
</svg>
